<svg width="310" height="60" viewBox="0 0 310 60" fill="none" xmlns="http://www.w3.org/2000/svg">
          <g clip-path="url(#clip0_359_2316)">
            <path
              d="M82.075 12.4934H88.3254L78.3251 38.7782H72.9075L62.5276 12.4934H68.8536L75.5592 31.0809L82.075 12.4934Z"
              fill="black"
            />
            <path
              d="M91.4323 15.7978V10.6906H96.9622V15.7978H91.4323ZM91.4323 38.7782V18.5011H96.9622V38.7782H91.4323Z"
              fill="black"
            />
            <path
              d="M109.539 39.3408C107.846 39.3408 106.35 39.0413 105.051 38.4403C103.749 37.8394 102.74 36.9888 102.019 35.8867C101.299 34.7846 100.941 33.5213 100.941 32.0947H106.319C106.345 32.6957 106.501 33.2026 106.792 33.6154C107.083 34.0282 107.48 34.3296 107.985 34.5158C108.491 34.704 109.07 34.7981 109.728 34.7981C110.259 34.7981 110.737 34.7232 111.167 34.5734C111.597 34.4237 111.95 34.1914 112.229 33.8784C112.506 33.5654 112.645 33.1968 112.645 32.7706C112.645 32.1446 112.316 31.6819 111.659 31.3805C111.003 31.081 110.017 30.8179 108.706 30.5914C107.873 30.4666 107.183 30.3418 106.641 30.215C106.097 30.0902 105.454 29.8714 104.71 29.5584C103.964 29.2454 103.371 28.8883 102.93 28.489C102.488 28.0877 102.103 27.5386 101.775 26.8358C101.446 26.135 101.283 25.321 101.283 24.3955C101.283 22.4928 102.041 20.9414 103.555 19.7395C105.07 18.5376 107.059 17.9366 109.521 17.9366C111.983 17.9366 113.966 18.5568 115.467 19.7952C116.969 21.0336 117.722 22.6675 117.722 24.695H112.457C112.457 23.0938 111.435 22.2912 109.389 22.2912C108.531 22.2912 107.861 22.4659 107.381 22.8173C106.9 23.1686 106.66 23.6429 106.66 24.2438C106.66 24.4954 106.73 24.7258 106.869 24.9389C107.009 25.152 107.172 25.321 107.361 25.4458C107.551 25.5706 107.848 25.6896 108.252 25.8029C108.655 25.9162 108.996 25.9968 109.275 26.0467C109.552 26.0966 109.969 26.1715 110.524 26.2714C111.005 26.3712 111.346 26.4403 111.547 26.4787C111.749 26.5171 112.089 26.5862 112.57 26.6861C113.048 26.7859 113.408 26.88 113.649 26.9683C113.889 27.0566 114.216 27.1757 114.635 27.3254C115.051 27.4752 115.367 27.6326 115.582 27.7939C115.797 27.9571 116.062 28.151 116.378 28.3757C116.694 28.6003 116.94 28.8518 117.116 29.1264C117.292 29.401 117.468 29.7024 117.646 30.0269C117.823 30.3533 117.943 30.7277 118.007 31.1539C118.069 31.5802 118.102 32.0294 118.102 32.5056C118.102 34.583 117.319 36.2419 115.752 37.4803C114.185 38.7187 112.117 39.3389 109.54 39.3389H109.539V39.3408Z"
              fill="black"
            />
            <path
              d="M138.858 18.4646H142.987V38.7417H138.631L138.176 36.9388C136.307 38.5401 134.097 39.3427 131.548 39.3427C128.466 39.3427 125.909 38.3231 123.878 36.2822C121.844 34.2431 120.829 31.6819 120.829 28.6041C120.829 25.5263 121.846 23.0092 123.878 20.9817C125.909 18.9542 128.466 17.9404 131.548 17.9404C134.149 17.9404 136.384 18.766 138.253 20.4191L138.86 18.4665H138.858V18.4646ZM128.005 32.5843C129.053 33.6364 130.378 34.1606 131.982 34.1606C133.585 34.1606 134.918 33.6345 135.978 32.5843C137.037 31.534 137.568 30.2054 137.568 28.6041C137.568 27.0028 137.037 25.6742 135.978 24.6239C134.918 23.5737 133.591 23.0476 132.001 23.0476C130.94 23.0476 129.987 23.2915 129.14 23.7791C128.294 24.2668 127.631 24.9311 127.151 25.7702C126.671 26.6092 126.43 27.5539 126.43 28.606C126.43 30.2092 126.955 31.5359 128.003 32.5862H128.005V32.5843Z"
              fill="black"
            />
            <path
              d="M161.055 39.1911C157.115 39.1911 153.863 37.9143 151.3 35.3607C148.738 32.8071 147.456 29.5661 147.456 25.6359C147.456 21.7057 148.738 18.4647 151.3 15.9111C153.863 13.3575 157.115 12.0807 161.055 12.0807C163.075 12.0807 164.95 12.4628 166.68 13.2269C168.409 13.9911 169.874 15.074 171.074 16.4756C172.273 17.8772 173.114 19.5168 173.594 21.3946H170.222C169.515 19.4919 168.353 18.002 166.738 16.9268C165.12 15.8496 163.228 15.312 161.055 15.312C158.074 15.312 155.631 16.2816 153.725 18.2228C151.818 20.1639 150.867 22.6407 150.867 25.657C150.867 28.6733 151.82 31.1463 153.725 33.072C155.631 34.9997 158.076 35.9636 161.055 35.9636C163.276 35.9636 165.209 35.3953 166.85 34.2548C168.491 33.1162 169.653 31.5322 170.335 29.5047H173.744C172.986 32.4845 171.464 34.8423 169.178 36.5818C166.893 38.3213 164.185 39.1911 161.053 39.1911H161.055Z"
              fill="black"
            />
            <path
              d="M187.496 39.2295C185.475 39.2295 183.632 38.7725 181.966 37.8586C180.3 36.9447 178.998 35.6813 178.065 34.0666C177.129 32.4519 176.662 30.6432 176.662 28.6407C176.662 25.586 177.691 23.0592 179.75 21.0567C181.807 19.0541 184.391 18.0519 187.496 18.0519C189.541 18.0519 191.391 18.5088 193.045 19.4228C194.699 20.3367 195.999 21.6 196.946 23.2148C197.893 24.8295 198.366 26.6381 198.366 28.6407C198.366 31.6704 197.329 34.1914 195.259 36.2074C193.188 38.2234 190.601 39.2295 187.494 39.2295H187.496ZM182.097 34.0282C183.523 35.4432 185.33 36.1498 187.515 36.1498C189.7 36.1498 191.505 35.4432 192.933 34.0282C194.358 32.6132 195.073 30.818 195.073 28.6388C195.073 26.4596 194.358 24.6644 192.933 23.2512C191.505 21.8381 189.7 21.1296 187.515 21.1296C185.33 21.1296 183.525 21.8381 182.097 23.2512C180.67 24.6663 179.957 26.4615 179.957 28.6388C179.957 30.816 180.67 32.6132 182.097 34.0282Z"
              fill="black"
            />
            <path
              d="M213.481 18.0499C215.881 18.0499 217.793 18.8506 219.22 20.4538C220.646 22.057 221.361 24.121 221.361 26.6496V38.7782H218.142V27.4003C218.142 26.0237 217.932 24.8602 217.516 23.9078C217.099 22.9574 216.48 22.2317 215.66 21.7306C214.839 21.2294 213.836 20.9798 212.648 20.9798C210.905 20.9798 209.441 21.625 208.254 22.9133C207.066 24.2035 206.474 25.799 206.474 27.6998V38.7763H203.254V18.5011H205.526L206.169 21.6922C206.675 20.9165 207.293 20.2598 208.025 19.7203C208.757 19.1827 209.59 18.7699 210.526 18.4819C211.459 18.1939 212.445 18.0499 213.481 18.0499Z"
              fill="black"
            />
            <path
              d="M237.799 18.0499C240.199 18.0499 242.111 18.8506 243.538 20.4538C244.964 22.057 245.679 24.121 245.679 26.6496V38.7782H242.46V27.4003C242.46 26.0237 242.25 24.8602 241.834 23.9078C241.418 22.9574 240.798 22.2317 239.978 21.7306C239.157 21.2294 238.154 20.9798 236.967 20.9798C235.223 20.9798 233.759 21.625 232.572 22.9133C231.384 24.2035 230.792 25.799 230.792 27.6998V38.7763H227.572V18.5011H229.844L230.487 21.6922C230.993 20.9165 231.611 20.2598 232.343 19.7203C233.075 19.1827 233.908 18.7699 234.844 18.4819C235.777 18.1939 236.763 18.0499 237.799 18.0499Z"
              fill="black"
            />
            <path
              d="M271.021 28.7156C271.021 28.992 270.996 29.3799 270.946 29.8791H253.483C253.734 31.7568 254.517 33.264 255.832 34.4045C257.145 35.5431 258.761 36.1133 260.68 36.1133C262.094 36.1133 263.351 35.808 264.449 35.1936C265.548 34.5812 266.425 33.7095 267.082 32.5844H270.454C269.596 34.6868 268.308 36.3207 266.59 37.4842C264.872 38.6477 262.902 39.2295 260.68 39.2295C257.726 39.2295 255.251 38.2157 253.256 36.1882C251.261 34.1607 250.263 31.6397 250.263 28.6215C250.263 25.6032 251.261 23.09 253.256 21.074C255.251 19.0599 257.726 18.0519 260.68 18.0519C263.634 18.0519 266.224 19.0791 268.143 21.1316C270.063 23.184 271.021 25.7127 271.021 28.7156ZM260.68 21.0932C259.468 21.0932 258.364 21.3312 257.366 21.8074C256.369 22.2836 255.542 22.9652 254.885 23.8541C254.228 24.7431 253.787 25.7626 253.56 26.9146H267.765C267.539 25.7376 267.095 24.7066 266.439 23.8157C265.782 22.9268 264.961 22.2509 263.977 21.7882C262.991 21.3255 261.893 21.0932 260.68 21.0932Z"
              fill="black"
            />
            <path
              d="M284.847 39.2295C282.852 39.2295 281.039 38.7725 279.412 37.8586C277.783 36.9447 276.509 35.6756 275.587 34.0474C274.665 32.4212 274.204 30.6183 274.204 28.6407C274.204 25.6128 275.221 23.09 277.253 21.074C279.284 19.0599 281.818 18.0519 284.847 18.0519C287.272 18.0519 289.374 18.7162 291.154 20.0429C292.934 21.3696 294.14 23.1341 294.772 25.3364H291.59C290.983 24.0346 290.081 23.0093 288.882 22.2567C287.683 21.506 286.337 21.1296 284.847 21.1296C282.751 21.1296 281.002 21.8496 279.6 23.2896C278.198 24.7296 277.498 26.5133 277.498 28.6407C277.498 30.0423 277.814 31.3133 278.446 32.4519C279.077 33.5904 279.955 34.4928 281.078 35.1552C282.201 35.8196 283.458 36.1498 284.847 36.1498C286.337 36.1498 287.669 35.7677 288.843 35.0036C290.017 34.2394 290.919 33.1834 291.551 31.8317H294.809C294.177 34.0839 292.959 35.881 291.154 37.2192C289.349 38.5594 287.245 39.2276 284.847 39.2276V39.2295Z"
              fill="black"
            />
            <path
              d="M307.765 35.8118H310V38.7782H307.348C305.152 38.7782 303.42 38.1465 302.159 36.8812C300.896 35.6179 300.265 33.8841 300.265 31.68V21.3907H296.666V20.8281L302.992 14.2195H303.484V18.4992H309.886V21.3907H303.484V31.5667C303.484 32.4921 303.649 33.2697 303.976 33.8956C304.304 34.5216 304.79 34.9977 305.435 35.3222C306.078 35.6486 306.854 35.8099 307.765 35.8099V35.8118Z"
              fill="black"
            />
            <path
              d="M71.2728 45.0624H68.5301V46.9248H71.0249V47.9117H68.5301V50.6304H67.4396V44.0468H71.2728V45.0624Z"
              fill="black"
            />
            <path
              d="M77.345 50.7513C76.3398 50.7513 75.505 50.4269 74.8406 49.7779C74.1762 49.1289 73.845 48.3149 73.845 47.3376C73.845 46.3603 74.1762 45.5462 74.8406 44.8973C75.505 44.2483 76.3398 43.9238 77.345 43.9238C78.3503 43.9238 79.1851 44.2483 79.8495 44.8973C80.5138 45.5462 80.8451 46.3603 80.8451 47.3376C80.8451 47.9769 80.694 48.5587 80.3938 49.0829C80.0935 49.607 79.6752 50.016 79.1406 50.3097C78.606 50.6054 78.0075 50.7513 77.3431 50.7513H77.345ZM75.6367 49.0349C76.0919 49.4899 76.6632 49.7165 77.3489 49.7165C78.0346 49.7165 78.604 49.4899 79.0573 49.0349C79.5086 48.5798 79.7352 48.0153 79.7352 47.3376C79.7352 46.6598 79.5086 46.0953 79.0573 45.6403C78.606 45.1853 78.0365 44.9587 77.3489 44.9587C76.6613 44.9587 76.0919 45.1853 75.6367 45.6403C75.1815 46.0953 74.9529 46.6598 74.9529 47.3376C74.9529 48.0153 75.1815 48.5798 75.6367 49.0349Z"
              fill="black"
            />
            <path
              d="M87.7812 50.6304L86.3575 48.194H85.0966V50.6304H84.0061V44.0468H86.5958C87.0122 44.0468 87.3918 44.1351 87.7347 44.3098C88.0756 44.4845 88.3429 44.7322 88.5366 45.0528C88.7303 45.3716 88.8252 45.7306 88.8252 46.1242C88.8252 46.5696 88.7012 46.9632 88.4552 47.305C88.2092 47.6468 87.8799 47.8925 87.4693 48.0442L89.0053 50.6304H87.7812ZM85.0966 45.0624V47.1783H86.5299C86.7062 47.1783 86.8708 47.1533 87.018 47.1034C87.1672 47.0535 87.2911 46.9805 87.3918 46.8864C87.4926 46.7924 87.572 46.6791 87.6281 46.5485C87.6843 46.418 87.7134 46.272 87.7134 46.1165C87.7134 45.8093 87.6049 45.5559 87.386 45.36C87.1672 45.1642 86.8824 45.0644 86.528 45.0644H85.0947H85.0966V45.0624Z"
              fill="black"
            />
            <path
              d="M100.456 44.0468H101.651L99.0618 50.6304H98.0468L95.399 44.0468H96.6038L98.5485 49.0887L100.456 44.0468Z"
              fill="black"
            />
            <path
              d="M104.555 50.6304V44.0468H105.645V50.6304H104.555Z"
              fill="black"
            />
            <path
              d="M111.309 50.7321C110.809 50.7321 110.371 50.6438 109.996 50.469C109.62 50.2943 109.327 50.0409 109.118 49.7126C108.909 49.3843 108.804 49.0003 108.804 48.5606H109.905C109.905 48.9119 110.036 49.1884 110.298 49.3919C110.559 49.5955 110.894 49.6972 111.299 49.6972C111.665 49.6972 111.975 49.607 112.229 49.4284C112.483 49.2499 112.609 49.0156 112.609 48.7276C112.609 48.622 112.591 48.5241 112.556 48.4358C112.521 48.3475 112.465 48.2726 112.386 48.2092C112.306 48.1459 112.231 48.0921 112.157 48.0441C112.084 47.998 111.977 47.9519 111.834 47.9078C111.69 47.8636 111.576 47.831 111.487 47.8099C111.398 47.7887 111.266 47.7542 111.088 47.7119C110.892 47.6678 110.743 47.6313 110.643 47.6044C110.542 47.5756 110.4 47.5315 110.22 47.4719C110.04 47.4124 109.901 47.3548 109.802 47.2972C109.703 47.2396 109.589 47.1647 109.455 47.0668C109.322 46.9689 109.223 46.8652 109.157 46.7558C109.091 46.6463 109.031 46.5139 108.981 46.3564C108.93 46.199 108.905 46.0243 108.905 45.8303C108.905 45.2409 109.114 44.7801 109.537 44.4479C109.957 44.1158 110.522 43.9487 111.229 43.9487C111.936 43.9487 112.514 44.1292 112.918 44.4902C113.323 44.8511 113.525 45.3407 113.525 45.9628H112.444C112.444 45.6499 112.328 45.4022 112.097 45.2236C111.867 45.0451 111.57 44.9548 111.21 44.9548C110.85 44.9548 110.573 45.0278 110.342 45.1756C110.112 45.3235 109.996 45.5289 109.996 45.7919C109.996 45.9052 110.025 46.0089 110.081 46.103C110.137 46.1971 110.205 46.2739 110.28 46.3334C110.356 46.3929 110.47 46.4505 110.621 46.5081C110.772 46.5638 110.902 46.606 111.005 46.6348C111.109 46.6636 111.262 46.702 111.466 46.7519C111.625 46.7903 111.743 46.8172 111.822 46.8364C111.902 46.8556 112.016 46.8883 112.169 46.9343C112.32 46.9804 112.438 47.0227 112.519 47.0572C112.601 47.0918 112.705 47.1398 112.833 47.2031C112.959 47.2665 113.058 47.3279 113.128 47.3913C113.197 47.4547 113.275 47.5315 113.36 47.6255C113.445 47.7196 113.511 47.8175 113.554 47.9212C113.598 48.0249 113.635 48.1439 113.668 48.2783C113.699 48.4127 113.715 48.5548 113.715 48.7065C113.715 49.3459 113.486 49.8431 113.031 50.1964C112.576 50.5516 112 50.7283 111.305 50.7283L111.309 50.7321Z"
              fill="black"
            />
            <path
              d="M121.224 50.6304L120.645 49.2H117.685L117.116 50.6304H115.958L118.632 44.0468H119.657L122.4 50.6304H121.224ZM119.155 45.458L118.065 48.2324H120.265L119.155 45.458Z"
              fill="black"
            />
            <path
              d="M136.727 44.0468H137.866L135.797 50.6304H134.829L133.15 46.3796L131.509 50.6304H130.541L128.425 44.0468H129.584L131.083 48.9101L132.942 44.1408H133.351L135.259 48.9101L136.729 44.0468H136.727Z"
              fill="black"
            />
            <path
              d="M143.729 50.7513C142.724 50.7513 141.889 50.4269 141.225 49.7779C140.56 49.1289 140.229 48.3149 140.229 47.3376C140.229 46.3603 140.56 45.5462 141.225 44.8973C141.889 44.2483 142.724 43.9238 143.729 43.9238C144.734 43.9238 145.569 44.2483 146.234 44.8973C146.898 45.5462 147.229 46.3603 147.229 47.3376C147.229 47.9769 147.078 48.5587 146.778 49.0829C146.478 49.607 146.059 50.016 145.525 50.3097C144.99 50.6054 144.392 50.7513 143.727 50.7513H143.729ZM142.021 49.0349C142.476 49.4899 143.047 49.7165 143.733 49.7165C144.419 49.7165 144.988 49.4899 145.441 49.0349C145.895 48.5798 146.119 48.0153 146.119 47.3376C146.119 46.6598 145.893 46.0953 145.441 45.6403C144.99 45.1853 144.421 44.9587 143.733 44.9587C143.045 44.9587 142.476 45.1853 142.021 45.6403C141.566 46.0953 141.337 46.6598 141.337 47.3376C141.337 48.0153 141.566 48.5798 142.021 49.0349Z"
              fill="black"
            />
            <path
              d="M154.165 50.6304L152.742 48.194H151.481V50.6304H150.39V44.0468H152.98C153.396 44.0468 153.776 44.1351 154.119 44.3098C154.46 44.4845 154.727 44.7322 154.921 45.0528C155.114 45.3716 155.209 45.7306 155.209 46.1242C155.209 46.5696 155.085 46.9632 154.839 47.305C154.593 47.6468 154.264 47.8925 153.853 48.0442L155.389 50.6304H154.165ZM151.481 45.0624V47.1783H152.914C153.09 47.1783 153.255 47.1533 153.402 47.1034C153.551 47.0535 153.675 46.9805 153.776 46.8864C153.877 46.7924 153.956 46.6791 154.012 46.5485C154.068 46.418 154.097 46.272 154.097 46.1165C154.097 45.8093 153.989 45.5559 153.77 45.36C153.551 45.1642 153.266 45.0644 152.912 45.0644H151.479H151.481V45.0624Z"
              fill="black"
            />
            <path
              d="M162.411 50.6304L160.332 47.7428H159.554V50.6304H158.463V44.0468H159.554V46.7367H160.323L162.221 44.0468H163.559L161.291 47.2263L163.766 50.6304H162.411Z"
              fill="black"
            />
            <path
              d="M167.571 49.6051H170.445V50.6304H166.48V44.0468H170.342V45.0624H167.573V46.7732H170.096V47.7696H167.573V49.6032H167.571V49.6051Z"
              fill="black"
            />
            <path
              d="M177.43 50.6304L176.006 48.194H174.745V50.6304H173.654V44.0468H176.244C176.661 44.0468 177.04 44.1351 177.383 44.3098C177.724 44.4845 177.991 44.7322 178.185 45.0528C178.379 45.3716 178.474 45.7306 178.474 46.1242C178.474 46.5696 178.35 46.9632 178.104 47.305C177.858 47.6468 177.528 47.8925 177.118 48.0442L178.654 50.6304H177.43ZM174.745 45.0624V47.1783H176.178C176.355 47.1783 176.519 47.1533 176.666 47.1034C176.816 47.0535 176.94 46.9805 177.04 46.8864C177.141 46.7924 177.22 46.6791 177.277 46.5485C177.333 46.418 177.362 46.272 177.362 46.1165C177.362 45.8093 177.253 45.5559 177.034 45.36C176.816 45.1642 176.531 45.0644 176.176 45.0644H174.743H174.745V45.0624Z"
              fill="black"
            />
            <path
              d="M183.804 50.7321C183.304 50.7321 182.866 50.6438 182.491 50.469C182.115 50.2943 181.822 50.0409 181.613 49.7126C181.404 49.3843 181.299 49.0003 181.299 48.5606H182.4C182.4 48.9119 182.531 49.1884 182.793 49.3919C183.054 49.5955 183.389 49.6972 183.794 49.6972C184.16 49.6972 184.47 49.607 184.724 49.4284C184.978 49.2499 185.104 49.0156 185.104 48.7276C185.104 48.622 185.086 48.5241 185.051 48.4358C185.016 48.3475 184.96 48.2726 184.881 48.2092C184.801 48.1459 184.726 48.0921 184.652 48.0441C184.579 47.998 184.472 47.9519 184.329 47.9078C184.185 47.8636 184.071 47.831 183.982 47.8099C183.893 47.7887 183.761 47.7542 183.583 47.7119C183.387 47.6678 183.238 47.6313 183.138 47.6044C183.037 47.5756 182.896 47.5315 182.715 47.4719C182.535 47.4124 182.396 47.3548 182.297 47.2972C182.198 47.2396 182.084 47.1647 181.95 47.0668C181.817 46.9689 181.718 46.8652 181.652 46.7558C181.586 46.6463 181.526 46.5139 181.476 46.3564C181.425 46.199 181.4 46.0243 181.4 45.8303C181.4 45.2409 181.609 44.7801 182.032 44.4479C182.452 44.1158 183.018 43.9487 183.725 43.9487C184.431 43.9487 185.009 44.1292 185.414 44.4902C185.818 44.8511 186.02 45.3407 186.02 45.9628H184.939C184.939 45.6499 184.823 45.4022 184.592 45.2236C184.362 45.0451 184.065 44.9548 183.705 44.9548C183.345 44.9548 183.068 45.0278 182.837 45.1756C182.607 45.3235 182.491 45.5289 182.491 45.7919C182.491 45.9052 182.52 46.0089 182.576 46.103C182.632 46.1971 182.7 46.2739 182.775 46.3334C182.851 46.3929 182.965 46.4505 183.116 46.5081C183.267 46.5638 183.397 46.606 183.5 46.6348C183.604 46.6636 183.757 46.702 183.961 46.7519C184.12 46.7903 184.238 46.8172 184.317 46.8364C184.397 46.8556 184.511 46.8883 184.664 46.9343C184.815 46.9804 184.933 47.0227 185.015 47.0572C185.096 47.0918 185.2 47.1398 185.328 47.2031C185.454 47.2665 185.553 47.3279 185.623 47.3913C185.692 47.4547 185.77 47.5315 185.855 47.6255C185.94 47.7196 186.006 47.8175 186.049 47.9212C186.093 48.0249 186.13 48.1439 186.163 48.2783C186.194 48.4127 186.21 48.5548 186.21 48.7065C186.21 49.3459 185.981 49.8431 185.526 50.1964C185.071 50.5516 184.495 50.7283 183.8 50.7283L183.804 50.7321Z"
              fill="black"
            />
            <path
              d="M189.212 51.984V51.4387C189.603 51.3446 189.801 51.0758 189.801 50.6304H189.156V49.4362H190.351V50.5459C190.351 50.9472 190.25 51.2698 190.047 51.5155C189.845 51.7594 189.566 51.9168 189.212 51.9859V51.984Z"
              fill="black"
            />
            <path
              d="M201.84 47.1975C202.131 47.3415 202.362 47.5527 202.528 47.833C202.697 48.1114 202.78 48.4301 202.78 48.7872C202.78 49.3018 202.582 49.7376 202.187 50.0948C201.792 50.4519 201.31 50.6304 200.74 50.6304H198.007V44.0468H200.682C201.238 44.0468 201.699 44.208 202.063 44.5306C202.427 44.8532 202.609 45.2564 202.609 45.7383C202.609 46.0263 202.54 46.3047 202.4 46.5696C202.261 46.8346 202.075 47.0439 201.84 47.1956V47.1975ZM201.527 45.8996C201.527 45.648 201.44 45.4426 201.265 45.2832C201.091 45.1239 200.874 45.0432 200.614 45.0432H199.078V46.754H200.614C200.88 46.754 201.099 46.6733 201.269 46.5101C201.44 46.3469 201.525 46.1434 201.525 45.8996H201.527ZM200.673 49.5956C200.963 49.5956 201.201 49.5072 201.389 49.3325C201.575 49.1578 201.67 48.9351 201.67 48.6644C201.67 48.3936 201.577 48.1728 201.389 47.9962C201.203 47.8215 200.963 47.7332 200.673 47.7332H199.078V49.5956H200.673Z"
              fill="black"
            />
            <path
              d="M211.014 44.0468L208.604 47.9962V50.6304H207.485V47.9885L205.102 44.0487H206.278L208.052 46.992L209.826 44.0487H211.014V44.0468Z"
              fill="black"
            />
            <path
              d="M222.106 44.0468H223.302L220.712 50.6304H219.697L217.049 44.0468H218.254L220.199 49.0887L222.106 44.0468Z"
              fill="black"
            />
            <path
              d="M226.205 50.6304V44.0468H227.296V50.6304H226.205Z"
              fill="black"
            />
            <path
              d="M232.959 50.7321C232.459 50.7321 232.022 50.6438 231.646 50.469C231.27 50.2943 230.978 50.0409 230.768 49.7126C230.559 49.3843 230.455 49.0003 230.455 48.5606H231.555C231.555 48.9119 231.686 49.1884 231.948 49.3919C232.209 49.5955 232.545 49.6972 232.949 49.6972C233.315 49.6972 233.625 49.607 233.879 49.4284C234.133 49.2499 234.259 49.0156 234.259 48.7276C234.259 48.622 234.241 48.5241 234.206 48.4358C234.172 48.3475 234.115 48.2726 234.036 48.2092C233.957 48.1459 233.881 48.0921 233.807 48.0441C233.734 47.998 233.627 47.9519 233.484 47.9078C233.341 47.8636 233.226 47.831 233.137 47.8099C233.048 47.7887 232.916 47.7542 232.738 47.7119C232.543 47.6678 232.393 47.6313 232.293 47.6044C232.192 47.5756 232.051 47.5315 231.87 47.4719C231.69 47.4124 231.551 47.3548 231.452 47.2972C231.353 47.2396 231.239 47.1647 231.105 47.0668C230.972 46.9689 230.873 46.8652 230.807 46.7558C230.741 46.6463 230.681 46.5139 230.631 46.3564C230.58 46.199 230.555 46.0243 230.555 45.8303C230.555 45.2409 230.764 44.7801 231.187 44.4479C231.607 44.1158 232.173 43.9487 232.88 43.9487C233.587 43.9487 234.164 44.1292 234.569 44.4902C234.973 44.8511 235.175 45.3407 235.175 45.9628H234.094C234.094 45.6499 233.978 45.4022 233.747 45.2236C233.517 45.0451 233.22 44.9548 232.86 44.9548C232.5 44.9548 232.223 45.0278 231.992 45.1756C231.762 45.3235 231.646 45.5289 231.646 45.7919C231.646 45.9052 231.675 46.0089 231.731 46.103C231.787 46.1971 231.855 46.2739 231.931 46.3334C232.006 46.3929 232.12 46.4505 232.271 46.5081C232.423 46.5638 232.552 46.606 232.655 46.6348C232.76 46.6636 232.913 46.702 233.116 46.7519C233.275 46.7903 233.393 46.8172 233.472 46.8364C233.552 46.8556 233.666 46.8883 233.819 46.9343C233.97 46.9804 234.088 47.0227 234.17 47.0572C234.251 47.0918 234.356 47.1398 234.483 47.2031C234.609 47.2665 234.708 47.3279 234.778 47.3913C234.848 47.4547 234.925 47.5315 235.01 47.6255C235.095 47.7196 235.161 47.8175 235.204 47.9212C235.248 48.0249 235.285 48.1439 235.318 48.2783C235.349 48.4127 235.365 48.5548 235.365 48.7065C235.365 49.3459 235.136 49.8431 234.681 50.1964C234.226 50.5516 233.65 50.7283 232.955 50.7283L232.959 50.7321Z"
              fill="black"
            />
            <path
              d="M242.874 50.6304L242.295 49.2H239.335L238.766 50.6304H237.608L240.283 44.0468H241.307L244.05 50.6304H242.874ZM240.806 45.458L239.715 48.2324H241.915L240.806 45.458Z"
              fill="black"
            />
            <path
              d="M258.377 44.0468H259.516L257.447 50.6304H256.479L254.8 46.3796L253.159 50.6304H252.191L250.076 44.0468H251.234L252.733 48.9101L254.592 44.1408H255.001L256.909 48.9101L258.379 44.0468H258.377Z"
              fill="black"
            />
            <path
              d="M265.379 50.7513C264.374 50.7513 263.539 50.4269 262.875 49.7779C262.21 49.1289 261.879 48.3149 261.879 47.3376C261.879 46.3603 262.21 45.5462 262.875 44.8973C263.539 44.2483 264.374 43.9238 265.379 43.9238C266.384 43.9238 267.219 44.2483 267.884 44.8973C268.548 45.5462 268.879 46.3603 268.879 47.3376C268.879 47.9769 268.728 48.5587 268.428 49.0829C268.128 49.607 267.709 50.016 267.175 50.3097C266.64 50.6054 266.042 50.7513 265.377 50.7513H265.379ZM263.671 49.0349C264.126 49.4899 264.697 49.7165 265.383 49.7165C266.069 49.7165 266.638 49.4899 267.091 49.0349C267.545 48.5798 267.769 48.0153 267.769 47.3376C267.769 46.6598 267.543 46.0953 267.091 45.6403C266.64 45.1853 266.071 44.9587 265.383 44.9587C264.695 44.9587 264.126 45.1853 263.671 45.6403C263.216 46.0953 262.987 46.6598 262.987 47.3376C262.987 48.0153 263.216 48.5798 263.671 49.0349Z"
              fill="black"
            />
            <path
              d="M275.815 50.6304L274.392 48.194H273.131V50.6304H272.04V44.0468H274.63C275.046 44.0468 275.426 44.1351 275.769 44.3098C276.11 44.4845 276.377 44.7322 276.571 45.0528C276.764 45.3716 276.859 45.7306 276.859 46.1242C276.859 46.5696 276.735 46.9632 276.489 47.305C276.243 47.6468 275.914 47.8925 275.503 48.0442L277.039 50.6304H275.815ZM273.131 45.0624V47.1783H274.564C274.74 47.1783 274.905 47.1533 275.052 47.1034C275.201 47.0535 275.325 46.9805 275.426 46.8864C275.527 46.7924 275.606 46.6791 275.662 46.5485C275.718 46.418 275.748 46.272 275.748 46.1165C275.748 45.8093 275.639 45.5559 275.42 45.36C275.201 45.1642 274.917 45.0644 274.562 45.0644H273.129H273.131V45.0624Z"
              fill="black"
            />
            <path
              d="M284.059 50.6304L281.98 47.7428H281.202V50.6304H280.111V44.0468H281.202V46.7367H281.971L283.869 44.0468H285.207L282.939 47.2263L285.415 50.6304H284.059Z"
              fill="black"
            />
            <path
              d="M289.221 49.6051H292.095V50.6304H288.13V44.0468H291.992V45.0624H289.223V46.7732H291.746V47.7696H289.223V49.6032L289.221 49.6051Z"
              fill="black"
            />
            <path
              d="M299.078 50.6304L297.654 48.194H296.393V50.6304H295.303V44.0468H297.892C298.309 44.0468 298.688 44.1351 299.031 44.3098C299.372 44.4845 299.639 44.7322 299.833 45.0528C300.027 45.3716 300.122 45.7306 300.122 46.1242C300.122 46.5696 299.998 46.9632 299.752 47.305C299.506 47.6468 299.176 47.8925 298.766 48.0442L300.302 50.6304H299.078ZM296.393 45.0624V47.1783H297.826C298.003 47.1783 298.167 47.1533 298.315 47.1034C298.464 47.0535 298.588 46.9805 298.688 46.8864C298.789 46.7924 298.868 46.6791 298.925 46.5485C298.981 46.418 299.01 46.272 299.01 46.1165C299.01 45.8093 298.901 45.5559 298.683 45.36C298.464 45.1642 298.179 45.0644 297.824 45.0644H296.391H296.393V45.0624Z"
              fill="black"
            />
            <path
              d="M305.454 50.7321C304.954 50.7321 304.517 50.6438 304.141 50.469C303.765 50.2943 303.473 50.0409 303.263 49.7126C303.054 49.3843 302.95 49.0003 302.95 48.5606H304.05C304.05 48.9119 304.181 49.1884 304.443 49.3919C304.704 49.5955 305.04 49.6972 305.444 49.6972C305.81 49.6972 306.12 49.607 306.374 49.4284C306.628 49.2499 306.754 49.0156 306.754 48.7276C306.754 48.622 306.736 48.5241 306.701 48.4358C306.667 48.3475 306.61 48.2726 306.531 48.2092C306.452 48.1459 306.376 48.0921 306.302 48.0441C306.229 47.998 306.122 47.9519 305.979 47.9078C305.836 47.8636 305.721 47.831 305.632 47.8099C305.543 47.7887 305.411 47.7542 305.233 47.7119C305.038 47.6678 304.888 47.6313 304.788 47.6044C304.687 47.5756 304.546 47.5315 304.365 47.4719C304.185 47.4124 304.046 47.3548 303.947 47.2972C303.848 47.2396 303.734 47.1647 303.6 47.0668C303.467 46.9689 303.368 46.8652 303.302 46.7558C303.236 46.6463 303.176 46.5139 303.126 46.3564C303.075 46.199 303.05 46.0243 303.05 45.8303C303.05 45.2409 303.259 44.7801 303.682 44.4479C304.102 44.1158 304.668 43.9487 305.375 43.9487C306.082 43.9487 306.659 44.1292 307.064 44.4902C307.468 44.8511 307.67 45.3407 307.67 45.9628H306.589C306.589 45.6499 306.473 45.4022 306.242 45.2236C306.012 45.0451 305.716 44.9548 305.355 44.9548C304.995 44.9548 304.718 45.0278 304.488 45.1756C304.257 45.3235 304.141 45.5289 304.141 45.7919C304.141 45.9052 304.17 46.0089 304.226 46.103C304.282 46.1971 304.35 46.2739 304.426 46.3334C304.501 46.3929 304.615 46.4505 304.766 46.5081C304.917 46.5638 305.047 46.606 305.15 46.6348C305.255 46.6636 305.408 46.702 305.611 46.7519C305.77 46.7903 305.888 46.8172 305.967 46.8364C306.047 46.8556 306.161 46.8883 306.314 46.9343C306.465 46.9804 306.583 47.0227 306.665 47.0572C306.746 47.0918 306.851 47.1398 306.978 47.2031C307.104 47.2665 307.203 47.3279 307.273 47.3913C307.343 47.4547 307.42 47.5315 307.505 47.6255C307.59 47.7196 307.656 47.8175 307.699 47.9212C307.743 48.0249 307.78 48.1439 307.813 48.2783C307.844 48.4127 307.86 48.5548 307.86 48.7065C307.86 49.3459 307.631 49.8431 307.176 50.1964C306.721 50.5516 306.146 50.7283 305.45 50.7283L305.454 50.7321Z"
              fill="black"
            />
            <path
              d="M0 0L27.2253 60L33.04 47.1936V47.1917L11.6254 0H0Z"
              fill="black"
            />
            <path
              d="M37.1075 38.2234L41.3784 28.8096C39.0502 26.8589 37.5414 23.9789 37.5414 20.7226C37.5414 14.8512 42.343 10.0896 48.268 10.0896C48.7949 10.0896 49.2985 10.1702 49.806 10.2432L54.0788 0.82752C52.2329 0.2976 50.2882 0 48.27 0C36.724 0 27.3648 9.27744 27.3648 20.7226C27.3648 28.0954 31.26 34.5504 37.1094 38.2234H37.1075Z"
              fill="black"
            />
          </g>
          <defs>
            <clipPath id="clip0_359_2316">
              <rect width="310" height="60" fill="white" />
            </clipPath>
          </defs>
        </svg>